<?xml version="1.0" encoding="UTF-8" standalone="no"?>
<!-- Generator: Adobe Illustrator 19.0.0, SVG Export Plug-In . SVG Version: 6.00 Build 0)  -->

<svg
   version="1.1"
   id="Layer_1"
   x="0px"
   y="0px"
   width="225.885px"
   height="229.683px"
   viewBox="0 0 225.885 229.683"
   enable-background="new 0 0 225.885 229.683"
   xml:space="preserve"
   sodipodi:docname="logo2-f.svg"
   inkscape:version="1.1.2 (0a00cf5339, 2022-02-04)"
   xmlns:inkscape="http://www.inkscape.org/namespaces/inkscape"
   xmlns:sodipodi="http://sodipodi.sourceforge.net/DTD/sodipodi-0.dtd"
   xmlns="http://www.w3.org/2000/svg"
   xmlns:svg="http://www.w3.org/2000/svg"><defs
   id="defs6"><inkscape:path-effect
     effect="perspective-envelope"
     up_left_point="55.576299,84.369981"
     up_right_point="184.57613,54.37"
     down_left_point="55.58,146.8936"
     down_right_point="184.57613,116.89"
     id="path-effect12018"
     is_visible="true"
     lpeversion="1"
     deform_type="perspective"
     horizontal_mirror="false"
     vertical_mirror="false"
     overflow_perspective="false" /><inkscape:path-effect
     effect="perspective-envelope"
     up_left_point="55.576299,84.369981"
     up_right_point="184.57613,64.37"
     down_left_point="55.576299,146.8936"
     down_right_point="184.57613,146.8936"
     id="path-effect11861"
     is_visible="true"
     lpeversion="1"
     deform_type="perspective"
     horizontal_mirror="false"
     vertical_mirror="false"
     overflow_perspective="false" /><inkscape:path-effect
     effect="perspective-envelope"
     up_left_point="55.576299,84.369981"
     up_right_point="184.57613,84.369981"
     down_left_point="55.576299,146.8936"
     down_right_point="184.57613,146.8936"
     id="path-effect11779"
     is_visible="true"
     lpeversion="1"
     deform_type="perspective"
     horizontal_mirror="true"
     vertical_mirror="false"
     overflow_perspective="false" /><inkscape:path-effect
     effect="perspective-envelope"
     up_left_point="0,0"
     up_right_point="180,0"
     down_left_point="0,50"
     down_right_point="180,50"
     id="path-effect9464"
     is_visible="true"
     lpeversion="1"
     deform_type="perspective"
     horizontal_mirror="false"
     vertical_mirror="false"
     overflow_perspective="false" /><inkscape:path-effect
     effect="perspective-envelope"
     up_left_point="61.117417,87.94"
     up_right_point="171.56,87.943292"
     down_left_point="61.117417,116.66329"
     down_right_point="171.55716,116.66329"
     id="path-effect9203"
     is_visible="true"
     lpeversion="1"
     deform_type="perspective"
     horizontal_mirror="false"
     vertical_mirror="false"
     overflow_perspective="false" /><inkscape:path-effect
     effect="perspective-envelope"
     up_left_point="61.117892,87.943292"
     up_right_point="171.55716,87.943292"
     down_left_point="61.117892,116.66329"
     down_right_point="171.55716,116.66329"
     id="path-effect8527"
     is_visible="true"
     lpeversion="1"
     deform_type="envelope_deformation"
     horizontal_mirror="false"
     vertical_mirror="false"
     overflow_perspective="false" /><inkscape:path-effect
     effect="bend_path"
     id="path-effect8525"
     is_visible="true"
     lpeversion="1"
     bendpath="M 61.117417,102.30329 H 171.55716"
     prop_scale="1"
     scale_y_rel="false"
     vertical="false"
     hide_knot="false" /><inkscape:path-effect
     effect="bend_path"
     id="path-effect8523"
     is_visible="true"
     lpeversion="1"
     bendpath="M 61.217417,102.30329 H 171.65716"
     prop_scale="1"
     scale_y_rel="false"
     vertical="false"
     hide_knot="false" /></defs><sodipodi:namedview
   id="namedview4"
   pagecolor="#ffffff"
   bordercolor="#666666"
   borderopacity="1.0"
   inkscape:pageshadow="2"
   inkscape:pageopacity="0.0"
   inkscape:pagecheckerboard="0"
   showgrid="false"
   inkscape:zoom="1.3997553"
   inkscape:cx="98.231455"
   inkscape:cy="142.16771"
   inkscape:window-width="1440"
   inkscape:window-height="831"
   inkscape:window-x="0"
   inkscape:window-y="0"
   inkscape:window-maximized="1"
   inkscape:current-layer="Layer_1"
   inkscape:snap-global="false"
   inkscape:snap-center="true"
   inkscape:snap-object-midpoints="true"
   inkscape:snap-page="true"
   inkscape:snap-bbox="true"
   inkscape:bbox-paths="true"
   inkscape:bbox-nodes="true"
   inkscape:snap-bbox-edge-midpoints="true"
   inkscape:snap-bbox-midpoints="true" />
<path
   id="path12289"
   inkscape:label="XMLID_30_"
   d="M 108.04492 0 C 107.12792 0 106.29392 0.52790625 105.91992 1.3789062 L 100.12695 14.191406 C 99.820952 14.855406 99.224719 15.347578 98.511719 15.517578 L 82.917969 19.074219 C 82.203969 19.244219 81.457484 19.057656 80.896484 18.597656 L 70.107422 9.5625 C 69.410422 8.9665 68.424797 8.8462813 67.591797 9.2382812 L 58.775391 13.492188 C 57.960391 13.883188 57.43222 14.735297 57.449219 15.654297 L 57.789062 29.726562 C 57.806063 30.458562 57.48425 31.155234 56.90625 31.615234 L 44.400391 41.603516 C 43.822391 42.062516 43.075328 42.234875 42.361328 42.046875 L 28.751953 38.591797 C 27.850953 38.370797 26.917844 38.676203 26.339844 39.408203 L 20.240234 47.066406 C 19.662234 47.781406 19.561328 48.767562 19.986328 49.601562 L 26.390625 62.126953 C 26.713625 62.773953 26.731203 63.554172 26.408203 64.201172 L 19.458984 78.648438 C 19.152984 79.312438 18.542125 79.789781 17.828125 79.925781 L 4.0507812 82.732422 C 3.1497813 82.919422 2.438375 83.616953 2.234375 84.501953 L 0.05859375 94.064453 C -0.14540625 94.949453 0.19478125 95.886266 0.92578125 96.447266 L 12.121094 104.95508 C 12.699094 105.39708 13.039063 106.09417 13.039062 106.82617 L 13.039062 122.85547 C 13.039062 123.58747 12.698094 124.26794 12.121094 124.71094 L 0.92578125 133.21875 C 0.19478125 133.78075 -0.14440625 134.71519 0.05859375 135.61719 L 2.234375 145.16406 C 2.438375 146.06606 3.1497813 146.76417 4.0507812 146.95117 L 17.830078 149.74219 C 18.544078 149.89519 19.154937 150.37216 19.460938 151.03516 L 26.410156 165.46484 C 26.733156 166.12884 26.715578 166.89459 26.392578 167.55859 L 19.988281 180.08203 C 19.563281 180.89903 19.666141 181.88619 20.244141 182.61719 L 26.341797 190.27344 C 26.919798 190.98844 27.854859 191.31222 28.755859 191.07422 L 42.365234 187.61914 C 43.079234 187.44914 43.826297 187.6035 44.404297 188.0625 L 56.908203 198.05078 C 57.486203 198.50978 57.808969 199.20745 57.792969 199.93945 L 57.453125 214.01172 C 57.436125 214.93072 57.962344 215.78145 58.777344 216.18945 L 67.595703 220.42773 C 68.427703 220.83573 69.414328 220.71609 70.111328 220.12109 L 80.900391 211.08594 C 81.461391 210.60994 82.207875 210.4378 82.921875 210.5918 L 98.517578 214.16406 C 99.231578 214.31706 99.826812 214.81161 100.13281 215.47461 L 105.92578 228.30469 C 106.29978 229.13869 107.13278 229.68359 108.05078 229.68359 L 117.83594 229.68359 C 118.75294 229.68359 119.58556 229.13769 119.97656 228.30469 L 125.75391 215.47461 C 126.05991 214.81061 126.65514 214.31706 127.36914 214.16406 L 142.96484 210.5918 C 143.69584 210.4388 144.44291 210.60994 145.00391 211.08594 L 155.77734 220.12109 C 156.47434 220.71709 157.45902 220.83673 158.29102 220.42773 L 167.10938 216.18945 C 167.94137 215.78145 168.45059 214.93072 168.43359 214.01172 L 168.09375 199.93945 C 168.07675 199.20745 168.39956 198.51078 168.97656 198.05078 L 181.48047 188.0625 C 182.05847 187.6035 182.80553 187.44814 183.51953 187.61914 L 197.14648 191.07422 C 198.02948 191.31222 198.98197 190.98844 199.54297 190.27344 L 205.64062 182.61719 C 206.21863 181.88519 206.32148 180.89803 205.89648 180.08203 L 199.50781 167.55859 C 199.16781 166.89459 199.15161 166.12884 199.47461 165.46484 L 206.42383 151.03516 C 206.72983 150.37116 207.34127 149.89519 208.07227 149.74219 L 221.83398 146.95117 C 222.73398 146.76417 223.44834 146.06606 223.65234 145.16406 L 225.82617 135.61719 C 226.03017 134.71519 225.68998 133.77975 224.95898 133.21875 L 213.75781 124.71094 C 213.17981 124.26894 212.83984 123.58747 212.83984 122.85547 L 212.83984 106.82617 C 212.83984 106.09417 213.17981 105.39808 213.75781 104.95508 L 224.95312 96.447266 C 225.68412 95.885266 226.02331 94.949453 225.82031 94.064453 L 223.64453 84.501953 C 223.44053 83.616953 222.72812 82.920422 221.82812 82.732422 L 208.06445 79.923828 C 207.33345 79.787828 206.72397 79.311438 206.41797 78.648438 L 199.46875 64.201172 C 199.14575 63.554172 199.16195 62.772 199.50195 62.125 L 205.89062 49.601562 C 206.31563 48.767562 206.21277 47.779453 205.63477 47.064453 L 199.53711 39.408203 C 198.97611 38.676203 198.02462 38.370797 197.14062 38.591797 L 183.51367 42.044922 C 182.79967 42.231922 182.05261 42.062516 181.47461 41.603516 L 168.9707 31.613281 C 168.3927 31.154281 168.07089 30.456609 168.08789 29.724609 L 168.42773 15.652344 C 168.44473 14.733344 167.93356 13.883187 167.10156 13.492188 L 158.28516 9.2382812 C 157.45316 8.8472812 156.46553 8.9655469 155.76953 9.5605469 L 144.99805 18.597656 C 144.43705 19.056656 143.68998 19.244219 142.95898 19.074219 L 127.36328 15.517578 C 126.64928 15.347578 126.05405 14.854406 125.74805 14.191406 L 119.9707 1.3789062 C 119.5797 0.52790625 118.74808 0 117.83008 0 L 108.04492 0 z M 50.246094 42.996094 L 171.50391 42.996094 L 171.50391 46.962891 L 154.18945 51.283203 L 58.503906 51.283203 L 58.503906 63.212891 L 64.669922 63.212891 L 54.375 81.0625 L 44.078125 63.212891 L 50.246094 63.212891 L 50.246094 42.996094 z M 175.66016 57.744141 C 179.09718 57.446762 180.81638 59.306847 180.81641 63.322266 L 180.81641 87.064453 C 180.81643 90.522798 178.90414 92.696559 175.08008 93.585938 L 165.75391 95.755859 L 165.75195 59.941406 L 174.08203 58.003906 C 174.64318 57.873407 175.16915 57.786623 175.66016 57.744141 z M 156.42578 62.111328 L 156.42578 93.585938 L 163.00977 92.054688 L 163.00977 96.394531 L 151.63672 99.039062 L 151.63672 63.224609 L 156.42578 62.111328 z M 174.82227 62.333984 C 174.55416 62.288259 174.24029 62.307491 173.88281 62.390625 L 170.54102 63.167969 L 170.54102 90.302734 L 174.13281 89.466797 C 175.39641 89.172918 176.02735 88.493795 176.02734 87.429688 L 176.02734 64.484375 C 176.02734 63.187471 175.62658 62.471161 174.82227 62.333984 z M 148.19531 64.025391 L 148.19531 68.363281 L 141.11133 70.011719 L 141.11133 80.884766 L 147.39648 79.423828 L 147.39648 83.763672 L 141.11133 85.224609 L 141.11328 97.146484 L 148.19531 95.5 L 148.19531 99.839844 L 136.32422 102.59961 L 136.32227 66.785156 L 148.19531 64.025391 z M 131.83398 67.830078 L 131.83398 103.64453 L 127.04688 104.75781 L 127.04492 68.943359 L 131.83398 67.830078 z M 123.80273 69.697266 L 123.80273 74.037109 L 116.7207 75.683594 L 116.7207 86.558594 L 123.00586 85.095703 L 123.00586 89.435547 L 116.7207 90.898438 L 116.7207 107.16016 L 111.93164 108.27344 L 111.93164 72.457031 L 123.80273 69.697266 z M 108.68945 73.212891 L 108.68945 77.550781 L 101.60547 79.199219 L 101.60547 90.074219 L 107.89062 88.611328 L 107.89062 92.951172 L 101.60547 94.414062 L 101.60742 110.67383 L 96.818359 111.78906 L 96.816406 75.972656 L 108.68945 73.212891 z M 93.375 76.773438 L 93.375 81.113281 L 86.291016 82.759766 L 86.291016 93.634766 L 92.576172 92.173828 L 92.578125 96.513672 L 86.291016 97.974609 L 86.292969 109.89648 L 93.375 108.24805 L 93.376953 112.58789 L 81.503906 115.34961 L 81.501953 79.535156 L 93.375 76.773438 z M 77.013672 80.578125 L 77.013672 116.39453 L 72.224609 117.50781 L 72.224609 101.24609 L 66.337891 102.61523 L 66.339844 118.87695 L 61.550781 119.99023 L 61.548828 84.173828 L 66.337891 83.060547 L 66.337891 98.275391 L 72.224609 96.90625 L 72.224609 81.691406 L 77.013672 80.578125 z M 53.166016 86.220703 C 56.094191 85.987128 57.558411 87.659162 57.558594 91.238281 L 57.558594 94.730469 L 52.769531 95.84375 L 52.769531 92.701172 C 52.769455 91.271186 52.070614 90.718134 50.673828 91.042969 L 49.925781 91.216797 C 48.562252 91.533902 47.88078 92.407902 47.880859 93.837891 L 47.880859 99.775391 C 47.880896 100.4405 48.013232 100.85839 48.279297 101.0293 C 48.545364 101.20021 48.97753 101.39839 49.576172 101.625 L 54.117188 103.01367 C 55.114911 103.34698 55.811842 103.63331 56.210938 103.87305 C 56.643287 104.07179 56.976166 104.37763 57.208984 104.78906 C 57.441802 105.16725 57.558529 105.9863 57.558594 107.25 L 57.558594 114.88281 C 57.558801 118.90664 55.631171 121.36648 51.773438 122.26367 L 48.830078 122.94922 C 45.005577 123.83871 43.092046 122.08888 43.091797 117.69922 L 43.091797 115.90234 L 47.880859 114.78906 L 47.880859 116.73438 C 47.880937 118.1311 48.597313 118.66267 50.027344 118.33008 L 50.875 118.13281 C 52.138746 117.83889 52.769605 116.99437 52.769531 115.59766 L 52.769531 109.51172 C 52.769495 108.84662 52.637158 108.42873 52.371094 108.25781 C 52.10503 108.08691 51.672856 107.8887 51.074219 107.66211 L 46.533203 106.17383 C 45.53547 105.87377 44.805458 105.5954 44.339844 105.33789 C 43.907483 105.07263 43.590198 104.6791 43.390625 104.16016 C 43.19105 103.60796 43.09185 102.8667 43.091797 101.93555 L 43.091797 94.603516 C 43.091563 90.513068 45.003575 88.022245 48.828125 87.132812 L 51.820312 86.4375 C 52.298378 86.326322 52.747705 86.254071 53.166016 86.220703 z M 197.37695 94.740234 L 197.37695 99.080078 L 190.29297 100.72656 L 190.29297 111.59961 L 196.57812 110.13867 L 196.57812 114.47852 L 190.29297 115.93945 L 190.29297 127.86133 L 197.37695 126.21289 L 197.37695 130.55273 L 185.50586 133.31445 L 185.50586 97.501953 L 197.37695 94.740234 z M 177.37305 99.488281 C 180.30083 99.251067 181.76365 100.90726 181.76367 104.45703 L 181.76367 108.49609 L 176.97656 109.60938 L 176.97656 105.91992 C 176.97655 104.52331 176.26188 103.98969 174.83203 104.32227 L 173.88281 104.54297 C 172.61921 104.83686 171.98827 105.68345 171.98828 107.08008 L 171.98828 130.02344 C 171.98829 131.42003 172.62119 131.97163 173.88477 131.67773 L 175.08008 131.39844 C 176.34366 131.10455 176.97657 130.25987 176.97656 128.86328 L 176.97656 126.91797 L 181.76367 125.80469 L 181.76367 128.09961 C 181.76369 132.15639 179.85331 134.62812 176.0293 135.51758 L 172.93555 136.23828 C 169.11153 137.12772 167.19925 135.54311 167.19922 131.48633 L 167.19922 107.84375 C 167.19917 103.78686 169.11149 101.31321 172.93555 100.42383 L 176.0293 99.705078 C 176.5073 99.593906 176.95479 99.522169 177.37305 99.488281 z M 158.81836 103.80469 C 161.74619 103.5711 163.20894 105.2434 163.20898 108.82227 L 163.20898 138.5 L 158.42188 139.61328 L 158.42188 126.49609 L 152.93555 127.77148 L 152.93555 140.89062 L 148.14648 142.00391 L 148.14648 112.32617 C 148.14642 108.23601 150.05869 105.74487 153.88281 104.85547 L 157.47266 104.02148 C 157.95067 103.91031 158.4001 103.83806 158.81836 103.80469 z M 140.17383 108.14062 C 143.12717 107.90111 144.60345 109.56954 144.60352 113.14844 L 144.60547 123.77344 C 144.60556 127.8303 142.69327 130.30389 138.86914 131.19336 L 134.87891 132.12109 L 134.87891 145.08984 L 130.08984 146.20312 L 130.08984 110.38867 L 138.81836 108.35938 C 139.30054 108.24723 139.75192 108.17484 140.17383 108.14062 z M 157.24219 108.54492 C 156.98032 108.51854 156.67533 108.54575 156.32617 108.62695 L 155.0293 108.92773 C 153.63267 109.25255 152.93357 110.1151 152.93359 111.51172 L 152.93359 123.43164 L 158.42188 122.15625 L 158.42188 110.23438 C 158.42187 109.1869 158.0278 108.62408 157.24219 108.54492 z M 121.70703 112.43555 C 124.63497 112.20194 126.0995 113.8742 126.09961 117.45312 L 126.09961 120.94531 L 121.31055 122.05859 L 121.31055 118.91602 C 121.31049 117.48613 120.61151 116.93297 119.21484 117.25781 L 118.4668 117.43164 C 117.10337 117.74873 116.42182 118.62283 116.42188 120.05273 L 116.42188 125.98828 C 116.4219 126.65334 116.55427 127.07129 116.82031 127.24219 C 117.08634 127.41308 117.5186 127.61131 118.11719 127.83789 L 122.6582 129.22656 C 123.65583 129.55983 124.35288 129.84622 124.75195 130.08594 C 125.18426 130.28467 125.51721 130.59055 125.75 131.00195 C 125.98279 131.3801 126.09958 132.20121 126.09961 133.46484 L 126.09961 141.0957 C 126.09972 145.11931 124.16993 147.57936 120.3125 148.47656 L 117.37109 149.16211 C 113.54688 150.05159 111.6349 148.30151 111.63477 143.91211 L 111.63477 142.11719 L 116.42188 141.00195 L 116.42188 142.94727 C 116.4219 144.34391 117.13844 144.87557 118.56836 144.54297 L 119.41602 144.3457 C 120.67968 144.0518 121.31059 143.20719 121.31055 141.81055 L 121.31055 135.72461 C 121.31054 135.05954 121.17815 134.64158 120.91211 134.4707 C 120.64608 134.29979 120.21381 134.10156 119.61523 133.875 L 115.07617 132.38672 C 114.07854 132.08669 113.34643 131.8083 112.88086 131.55078 C 112.44855 131.28555 112.13313 130.8939 111.93359 130.375 C 111.73404 129.82284 111.63284 129.08149 111.63281 128.15039 L 111.63281 120.81641 C 111.63268 116.7262 113.54487 114.23709 117.36914 113.34766 L 120.36133 112.65234 C 120.83936 112.54117 121.28875 112.46892 121.70703 112.43555 z M 138.60938 112.87891 C 138.34127 112.85397 138.02935 112.8817 137.67188 112.96484 L 134.87695 113.61523 L 134.87891 127.78125 L 137.91992 127.07422 C 139.18356 126.78031 139.81643 125.93373 139.81641 124.53711 L 139.81641 114.5625 C 139.81639 113.51501 139.4137 112.95371 138.60938 112.87891 z M 107.99219 115.5293 L 102.95508 134.50781 L 109.38867 151.01758 L 104.60156 152.13281 L 98.615234 136.01562 L 98.615234 135.7168 L 103.60156 116.55078 L 107.99219 115.5293 z M 98.365234 117.76758 L 98.365234 153.58203 L 93.576172 154.69531 L 93.576172 118.88086 L 98.365234 117.76758 z M 85.443359 120.86914 C 88.371399 120.63188 89.833844 122.28802 89.833984 125.83789 L 89.833984 129.87695 L 85.046875 130.99219 L 85.046875 127.30078 C 85.046817 125.9041 84.330369 125.37251 82.900391 125.70508 L 81.953125 125.92383 C 80.689422 126.21773 80.058534 127.06427 80.058594 128.46094 L 80.058594 151.40625 C 80.058654 152.80291 80.691388 153.35448 81.955078 153.06055 L 83.152344 152.78125 C 84.41603 152.48733 85.046934 151.64274 85.046875 150.24609 L 85.046875 148.30078 L 89.835938 147.18555 L 89.835938 149.48047 C 89.836097 153.53738 87.923913 156.01088 84.099609 156.90039 L 81.005859 157.61914 C 77.181528 158.50866 75.269713 156.92607 75.269531 152.86914 L 75.269531 129.22461 C 75.269349 125.1676 77.181478 122.69416 81.005859 121.80469 L 84.097656 121.08594 C 84.575701 120.97475 85.025068 120.90304 85.443359 120.86914 z M 66.886719 125.18555 C 69.814811 124.95191 71.277178 126.62414 71.277344 130.20312 L 71.279297 159.88281 L 66.490234 160.99609 L 66.490234 147.87695 L 61.003906 149.1543 L 61.003906 162.27148 L 56.214844 163.38672 L 56.212891 133.70703 C 56.21268 129.61672 58.124774 127.12582 61.949219 126.23633 L 65.541016 125.40234 C 66.019068 125.29116 66.46842 125.21892 66.886719 125.18555 z M 51.972656 128.55859 L 51.974609 164.37305 L 47.185547 165.48633 L 47.185547 149.22461 L 41.298828 150.59375 L 41.298828 166.85547 L 36.509766 167.96875 L 36.507812 132.1543 L 41.296875 131.04102 L 41.298828 146.25391 L 47.185547 144.88477 L 47.183594 129.67188 L 51.972656 128.55859 z M 65.310547 129.92578 C 65.048653 129.8994 64.743717 129.9266 64.394531 130.00781 L 63.097656 130.31055 C 61.700907 130.6354 61.001882 131.49589 61.001953 132.89258 L 61.001953 144.81445 L 66.490234 143.53711 L 66.490234 131.61523 C 66.490184 130.56772 66.096228 130.00493 65.310547 129.92578 z M 171.50391 142.59766 L 181.80078 160.46484 L 175.63281 160.46484 L 175.63281 180.66211 L 54.375 180.66211 L 54.375 176.64648 L 71.416016 172.39258 L 167.375 172.39258 L 167.375 160.46484 L 161.20898 160.46484 L 171.50391 142.59766 z "
   style="fill:#1c9dd8;fill-opacity:1" />
</svg>
