<?xml version="1.0" standalone="no"?>
<!DOCTYPE svg PUBLIC "-//W3C//DTD SVG 20010904//EN"
 "http://www.w3.org/TR/2001/REC-SVG-20010904/DTD/svg10.dtd">
<svg version="1.0" xmlns="http://www.w3.org/2000/svg"
 width="920.000000pt" height="920.000000pt" viewBox="0 0 920.000000 920.000000"
 preserveAspectRatio="xMidYMid meet">
<metadata>
Created by potrace 1.14, written by Peter Selinger 2001-2017
</metadata>
<g transform="translate(0.000000,920.000000) scale(0.100000,-0.100000)"
fill="#000000" stroke="none">
<path d="M4363 9188 c-12 -6 -33 -34 -46 -62 -61 -126 -97 -205 -97 -211 0 -3
-20 -47 -44 -98 -24 -50 -44 -95 -44 -100 -1 -4 -15 -34 -32 -66 -34 -64 -46
-70 -180 -97 -29 -6 -223 -51 -260 -61 -14 -3 -29 -7 -35 -8 -5 -1 -12 -3 -15
-4 -3 -1 -16 -4 -30 -6 -14 -2 -65 -13 -114 -24 -64 -14 -96 -17 -114 -10 -20
8 -108 74 -132 99 -3 3 -30 25 -60 50 -30 25 -64 53 -75 63 -11 10 -33 28 -48
40 -16 12 -36 29 -45 37 -63 59 -125 101 -153 105 -31 4 -101 -27 -385 -167
-67 -33 -69 -39 -69 -255 0 -106 2 -193 5 -193 8 0 4 -245 -4 -259 -5 -7 -121
-103 -260 -213 -138 -111 -253 -204 -256 -208 -3 -3 -18 -12 -35 -18 -28 -11
-52 -11 -95 3 -10 3 -27 8 -37 10 -10 2 -63 15 -117 30 -55 14 -109 27 -120
30 -12 2 -48 11 -81 20 -33 9 -67 18 -76 20 -9 2 -33 8 -53 13 -69 20 -93 6
-183 -106 -43 -53 -82 -103 -88 -110 -5 -7 -18 -22 -27 -33 -10 -10 -18 -23
-18 -29 0 -5 -4 -10 -9 -10 -17 0 -61 -80 -59 -107 1 -15 16 -55 34 -88 168
-321 245 -486 239 -507 -14 -47 -40 -108 -47 -108 -5 0 -8 -5 -8 -11 0 -16
-32 -83 -44 -91 -6 -4 -8 -8 -4 -8 4 0 -10 -35 -31 -77 -62 -124 -141 -292
-141 -299 0 -10 -58 -64 -70 -65 -5 -1 -13 -2 -17 -3 -5 -2 -30 -6 -58 -11
-57 -10 -64 -12 -67 -15 -4 -3 -39 -9 -82 -15 -21 -3 -43 -8 -49 -12 -5 -3
-24 -7 -41 -9 -17 -2 -42 -6 -56 -9 -14 -4 -38 -8 -55 -11 -16 -3 -37 -7 -45
-10 -8 -3 -33 -8 -55 -11 -49 -7 -82 -28 -101 -64 -8 -16 -12 -29 -10 -29 3 0
0 -15 -5 -32 -5 -18 -12 -49 -15 -68 -3 -19 -10 -42 -15 -51 -4 -9 -6 -19 -2
-22 3 -4 1 -13 -5 -20 -7 -8 -10 -16 -7 -18 2 -3 -2 -29 -10 -59 -26 -97 -28
-136 -9 -165 9 -14 87 -79 173 -143 86 -64 158 -119 161 -122 3 -3 37 -30 77
-60 40 -30 78 -67 84 -83 14 -33 17 -665 4 -707 -10 -30 -12 -33 -115 -110
-47 -35 -90 -68 -95 -74 -6 -6 -18 -15 -27 -21 -49 -29 -251 -190 -264 -210
-18 -27 -15 -62 16 -190 12 -49 30 -128 42 -175 11 -47 21 -91 22 -97 6 -38
64 -63 202 -86 16 -3 63 -12 104 -21 41 -8 89 -17 105 -20 17 -2 32 -5 35 -7
3 -1 10 -3 15 -4 6 -2 12 -4 15 -5 7 -2 29 -7 70 -14 69 -11 83 -16 106 -31
24 -15 116 -189 106 -199 -3 -4 0 -6 6 -6 7 0 12 -4 12 -10 0 -5 27 -64 60
-132 33 -67 60 -128 60 -134 0 -7 4 -14 9 -16 4 -1 23 -36 40 -75 23 -53 30
-80 25 -100 -7 -26 -57 -126 -207 -413 -67 -129 -75 -170 -44 -215 12 -16 24
-32 27 -35 3 -3 21 -25 40 -50 19 -25 40 -52 47 -60 7 -8 40 -50 74 -93 89
-112 106 -118 237 -78 17 5 32 8 32 5 0 -3 8 0 18 5 9 5 31 12 47 15 17 3 66
15 110 27 44 11 87 22 95 24 8 2 35 8 60 15 25 7 54 14 65 17 66 18 104 4 192
-72 6 -5 23 -19 37 -30 15 -11 32 -25 39 -30 6 -6 46 -37 87 -70 41 -32 79
-65 83 -72 4 -7 14 -13 22 -13 8 0 20 -9 27 -20 7 -11 17 -20 23 -20 5 0 30
-18 53 -40 24 -22 47 -40 50 -40 4 0 14 -12 22 -28 12 -21 15 -54 13 -142 -1
-63 -4 -200 -6 -305 -3 -124 0 -198 7 -214 8 -18 60 -48 205 -119 107 -52 207
-96 223 -99 26 -4 59 12 105 52 26 22 221 184 247 205 10 8 26 22 35 30 32 31
116 97 136 107 23 12 53 9 145 -12 36 -9 74 -17 85 -19 11 -2 81 -19 155 -36
74 -18 142 -34 150 -35 66 -7 169 -41 192 -63 15 -14 27 -28 26 -31 -1 -6 14
-40 83 -186 18 -38 33 -74 35 -80 1 -5 21 -50 44 -100 23 -49 50 -108 61 -131
10 -22 30 -46 44 -52 34 -16 444 -16 478 -1 23 11 66 69 50 69 -4 0 -2 4 5 9
7 4 14 14 16 22 1 8 7 23 13 34 6 11 34 74 63 140 29 66 56 125 61 131 5 6 6
14 2 17 -3 4 0 7 7 7 7 0 11 3 7 6 -7 8 63 146 82 160 12 9 151 45 231 60 9 2
45 10 80 19 36 9 74 18 85 20 11 2 43 9 70 15 28 6 57 13 65 15 8 2 43 10 78
19 86 20 109 14 181 -49 14 -13 49 -42 76 -65 28 -23 64 -54 81 -68 17 -15 42
-36 55 -46 46 -37 144 -120 161 -137 9 -9 32 -19 51 -23 36 -7 82 13 347 143
122 61 118 52 115 263 -2 98 -6 182 -9 187 -4 5 -2 12 4 16 6 4 7 11 4 17 -13
21 -11 212 3 240 7 15 50 56 95 93 46 36 90 71 98 78 8 7 47 37 85 67 39 30
72 57 75 60 3 3 25 21 50 40 58 45 80 62 94 76 16 15 58 38 76 41 8 1 69 -12
135 -28 66 -17 127 -32 136 -34 8 -2 61 -15 117 -30 56 -15 109 -28 119 -30
10 -2 18 -4 18 -5 0 -4 44 -11 78 -12 33 -2 44 4 75 38 21 22 50 58 66 79 17
22 32 42 36 45 3 3 18 22 33 43 16 20 39 50 52 65 14 15 29 32 33 38 18 21 36
59 39 82 4 21 -73 181 -222 467 -29 55 -47 104 -48 125 0 25 28 93 95 230 52
107 118 245 148 307 53 111 70 129 125 139 32 6 73 15 95 20 14 3 34 7 45 8
11 1 34 6 50 9 34 8 47 11 160 34 44 8 89 17 100 19 11 1 21 3 23 4 3 3 11 5
55 14 61 13 71 32 112 224 3 12 7 32 10 45 3 12 7 33 10 47 3 14 9 41 15 60
21 68 23 119 7 144 -14 21 -64 61 -302 241 -44 33 -82 62 -85 65 -3 3 -21 17
-40 30 -51 36 -67 52 -75 80 -4 13 -7 176 -7 362 0 312 2 340 19 362 10 13 83
73 163 132 80 60 147 111 150 114 3 3 23 19 45 35 69 52 79 59 113 94 41 42
41 46 -22 310 -38 162 -47 188 -70 206 -15 12 -33 22 -39 23 -7 0 -23 3 -37 6
-67 13 -87 17 -110 22 -14 3 -35 8 -47 10 -13 2 -33 6 -45 9 -13 2 -90 18
-171 35 -81 16 -156 34 -167 40 -18 10 -66 70 -63 80 1 3 -22 55 -52 115 -229
477 -217 449 -209 481 4 14 27 65 51 113 135 261 215 423 219 445 5 29 -7 64
-33 91 -10 11 -30 36 -44 55 -15 19 -35 45 -45 57 -11 12 -30 37 -44 54 -106
138 -126 155 -180 151 -32 -2 -48 -6 -225 -52 -135 -35 -148 -38 -172 -44 -35
-8 -115 -28 -165 -41 -20 -5 -38 -1 -62 13 -68 40 -531 419 -542 443 -11 26
-12 198 -1 216 4 6 3 14 -3 18 -6 4 -8 10 -5 15 3 5 7 89 9 187 5 215 1 227
-75 265 -381 188 -387 190 -459 118 -3 -3 -86 -72 -185 -155 -99 -82 -182
-152 -185 -155 -16 -19 -68 -46 -85 -45 -26 2 -122 20 -127 24 -2 2 -14 4 -28
7 -14 2 -104 22 -200 44 -96 22 -197 45 -225 51 -27 6 -66 18 -85 27 -42 20
-51 38 -197 367 -82 185 -102 221 -129 233 -33 16 -450 15 -481 0z m2583
-2043 c3 -6 6 -41 7 -78 l2 -66 -45 -11 c-25 -6 -47 -12 -50 -12 -3 0 -15 -4
-28 -9 -21 -8 -38 -12 -99 -24 -16 -3 -37 -9 -48 -12 -11 -4 -24 -8 -30 -9
-15 -3 -99 -24 -110 -28 -5 -1 -28 -7 -50 -11 -55 -12 -55 -12 -57 -15 -2 -1
-10 -3 -18 -5 -8 -2 -51 -12 -95 -22 -77 -18 -152 -19 -1987 -18 -1050 0
-1909 -2 -1909 -5 -1 -3 -2 -110 -3 -237 l-2 -233 25 -1 c14 0 70 -1 123 -1
l96 0 -27 -52 c-16 -28 -61 -107 -101 -176 -40 -69 -81 -138 -89 -155 -9 -16
-37 -64 -61 -105 -61 -103 -87 -149 -107 -187 -9 -18 -19 -33 -23 -33 -5 0
-67 103 -155 259 -11 20 -37 64 -58 99 -20 35 -37 65 -37 68 0 2 -12 23 -27
47 -37 56 -70 116 -84 150 -6 15 -15 27 -19 27 -4 0 -13 13 -18 30 l-11 29
114 -1 c63 -1 118 1 121 5 4 4 8 186 9 404 1 219 3 398 4 399 0 0 1090 1 2422
1 1831 0 2422 -3 2425 -12z m744 -1678 c0 -1035 -3 -1304 -12 -1305 -28 -4
-55 -9 -93 -20 -22 -6 -51 -13 -65 -16 -14 -3 -41 -10 -60 -15 -75 -21 -109
-29 -113 -25 -2 2 -2 77 0 166 2 90 5 253 6 364 2 110 8 207 12 214 6 9 4 11
-5 5 -8 -5 -11 -4 -6 3 3 6 9 142 12 304 3 161 7 362 8 446 2 83 0 152 -4 152
-4 0 -7 -6 -7 -12 -1 -15 -6 -42 -34 -183 -10 -55 -21 -110 -24 -123 -2 -13
-6 -31 -9 -40 -3 -9 -8 -33 -10 -52 -3 -19 -8 -46 -11 -60 -13 -55 -17 -76
-20 -100 -2 -14 -4 -27 -5 -30 -1 -3 -2 -8 -1 -12 0 -5 -4 -8 -10 -8 -5 0 -7
-5 -4 -10 7 -11 -20 -149 -36 -188 -6 -15 -6 -21 1 -17 6 4 6 -4 -1 -22 -6
-15 -12 -39 -13 -53 -2 -14 -6 -36 -9 -50 -4 -14 -9 -38 -13 -55 -10 -52 -25
-129 -30 -159 -13 -71 -18 -75 -149 -102 -12 -2 -93 -23 -117 -30 -13 -4 -20
12 -39 93 -13 54 -24 101 -25 106 -1 4 -2 8 -3 10 -1 1 -4 16 -6 33 -3 17 -12
60 -20 95 -9 35 -18 75 -21 88 -3 12 -12 53 -20 90 -9 36 -18 75 -20 86 -6 34
-61 284 -70 320 -3 11 -8 34 -10 50 -10 52 -33 147 -37 151 -6 6 2 -484 18
-1126 3 -124 7 -294 8 -379 l2 -154 -25 -3 c-14 -2 -52 -10 -85 -19 -87 -22
-108 -27 -122 -28 -7 0 -13 -3 -13 -6 0 -3 -10 -7 -23 -8 -33 -3 -51 -8 -64
-16 -9 -6 -13 0 -14 20 -2 75 -1 349 1 358 1 6 1 15 0 20 -2 14 -3 448 0 460
1 6 1 15 0 20 -1 6 -2 76 -2 157 1 145 1 147 -21 146 -12 -1 -28 -6 -34 -11
-7 -5 -13 -7 -13 -5 0 5 -22 0 -190 -42 -47 -12 -92 -23 -100 -25 -8 -2 -15
-4 -15 -5 0 -1 -13 -4 -30 -6 -16 -3 -32 -8 -35 -10 -3 -3 -5 -152 -6 -330 -1
-178 -4 -327 -8 -331 -6 -7 -29 -13 -53 -15 -7 -1 -13 -5 -13 -10 0 -5 -4 -7
-8 -4 -5 3 -60 -8 -123 -23 -63 -16 -115 -28 -117 -26 -2 1 -3 150 -3 330 l0
327 -22 -6 c-12 -4 -33 -9 -47 -12 -14 -3 -52 -12 -85 -20 -33 -8 -71 -17 -85
-20 -14 -3 -50 -11 -80 -18 -30 -8 -67 -17 -81 -20 -29 -6 -31 -19 -29 -146 0
-30 1 -61 1 -67 0 -7 0 -42 0 -78 0 -36 0 -72 0 -80 0 -8 0 -44 0 -80 0 -77 0
-86 -1 -148 0 -27 2 -52 5 -57 3 -4 1 -10 -4 -12 -5 -2 -6 -24 -1 -50 4 -27 4
-48 1 -48 -7 0 -4 -107 4 -127 2 -6 0 -13 -4 -15 -5 -2 -6 -24 -1 -50 4 -27 4
-48 1 -48 -7 0 -4 -107 4 -127 2 -7 0 -13 -5 -13 -5 0 -9 -10 -7 -22 2 -19 -8
-24 -88 -45 -49 -13 -100 -26 -112 -28 -13 -3 -46 -11 -75 -19 -29 -7 -56 -12
-60 -10 -4 3 -7 258 -7 567 0 309 0 573 -1 586 0 19 -4 22 -22 17 -13 -4 -34
-9 -48 -12 -14 -3 -34 -8 -45 -11 -24 -8 -21 -8 -70 -18 -56 -13 -55 -12 -57
-15 -2 -1 -11 -3 -22 -5 -10 -2 -39 -9 -65 -15 -25 -6 -48 -10 -51 -9 -3 1
-14 -2 -25 -8 -20 -11 -20 -20 -20 -593 0 -320 -3 -586 -6 -592 -4 -6 -15 -12
-26 -13 -10 -1 -25 -5 -33 -8 -36 -13 -272 -67 -278 -63 -9 5 -8 2578 1 2593
5 8 47 19 89 23 4 0 26 7 48 15 22 8 40 12 40 8 0 -3 6 0 13 6 8 6 16 9 18 6
3 -2 27 2 54 10 89 27 80 82 80 -526 0 -297 2 -545 5 -550 4 -5 20 -4 41 2 18
5 41 12 49 14 8 1 33 8 55 14 22 6 51 12 65 15 14 2 25 5 25 6 0 2 25 9 80 20
71 14 105 30 105 49 1 9 1 255 1 547 l0 531 25 12 c14 6 35 11 48 11 12 0 26
3 30 7 3 4 17 8 29 10 12 2 40 9 62 15 22 6 47 12 55 14 8 1 26 5 40 9 55 14
55 15 57 -60 1 -38 2 -81 3 -95 0 -14 1 -55 1 -92 0 -38 0 -75 0 -83 0 -8 0
-44 0 -80 0 -36 0 -72 0 -80 0 -8 0 -44 0 -80 0 -36 0 -72 0 -80 0 -8 0 -44 0
-80 0 -36 0 -72 0 -80 0 -8 0 -45 0 -82 0 -89 0 -110 -2 -120 -1 -4 -1 -25 0
-47 1 -37 2 -38 29 -31 34 9 38 10 87 20 55 12 55 12 58 15 2 2 20 6 57 14 14
3 64 15 112 27 l88 21 0 312 c-1 171 -1 323 0 337 0 28 12 34 85 46 17 3 36
10 43 15 6 6 12 8 12 5 0 -3 38 5 83 17 46 12 88 21 93 19 5 -2 9 -144 8 -333
-1 -285 1 -330 14 -330 11 0 167 37 322 76 8 2 36 9 62 15 l47 12 -2 74 c-2
41 1 79 5 85 3 7 4 16 1 22 -6 9 -8 438 -3 461 1 6 1 15 0 20 -1 9 -2 368 -1
422 1 21 23 35 66 39 11 1 54 11 95 23 41 12 91 24 110 27 19 3 39 8 44 11 4
3 23 7 41 10 31 4 33 2 37 -29 4 -27 22 -110 43 -198 2 -8 20 -89 39 -180 20
-91 43 -193 52 -228 8 -34 17 -74 19 -90 2 -15 13 -64 25 -110 11 -46 22 -97
25 -115 2 -18 11 -59 20 -92 8 -33 17 -69 19 -80 13 -59 47 -213 51 -230 3
-11 8 -33 11 -50 3 -16 6 -31 8 -32 2 -2 68 318 72 352 1 6 3 12 4 15 1 3 4
19 6 35 3 17 14 73 25 125 12 52 22 104 24 115 2 11 5 29 8 40 2 11 7 36 11
55 3 19 8 45 11 58 3 12 7 30 9 40 2 9 7 37 12 62 4 25 8 47 9 50 2 6 16 74
21 105 10 53 14 72 19 95 7 31 32 155 39 193 2 15 7 35 10 45 3 9 7 33 10 52
3 19 8 46 11 60 3 14 8 41 11 60 3 19 9 38 12 42 8 7 125 39 202 54 14 3 34 8
45 11 26 9 34 11 70 18 16 3 32 8 34 11 2 2 10 4 18 4 11 0 13 -224 13 -1303z
m-3925 -961 c0 -712 -2 -1297 -5 -1299 -4 -4 -231 -63 -278 -72 -9 -2 -17 -4
-17 -5 0 -1 -10 -3 -22 -6 -20 -3 -23 0 -24 29 0 17 0 281 -1 585 0 303 -3
554 -6 556 -4 2 -77 -14 -162 -36 -85 -22 -164 -41 -175 -44 -11 -2 -33 -8
-50 -12 l-30 -8 -2 -589 c-2 -323 -4 -590 -6 -592 -6 -5 -278 -74 -313 -78
l-31 -4 0 1299 0 1299 71 17 c39 10 73 19 76 19 3 1 28 7 56 14 29 7 60 14 70
16 11 2 19 4 19 5 0 1 12 4 28 6 24 4 27 2 27 -23 0 -15 0 -263 0 -550 l0
-522 30 4 c16 2 33 6 38 9 5 3 19 7 33 10 13 3 35 8 49 11 14 3 35 8 47 11 12
2 34 9 48 14 14 5 25 7 25 4 0 -2 8 0 18 5 9 5 33 12 53 15 20 3 48 10 62 15
l25 10 0 546 c0 301 4 551 9 555 4 4 40 15 78 24 39 9 75 18 80 20 6 1 28 6
50 11 22 4 46 11 53 14 7 4 27 8 45 9 l33 2 -1 -1294z m-1475 872 c49 -13 107
-65 134 -123 29 -61 42 -158 41 -315 l0 -155 -26 -12 c-14 -7 -43 -15 -65 -19
-21 -3 -44 -10 -50 -15 -6 -5 -13 -7 -16 -4 -2 3 -34 -4 -71 -14 -37 -11 -79
-21 -94 -23 l-26 -3 -1 142 c-1 128 -3 145 -22 170 -12 15 -26 28 -32 28 -6 0
-13 3 -17 7 -14 14 -143 -16 -197 -45 -21 -11 -40 -29 -44 -39 -3 -10 -9 -18
-14 -18 -5 0 -12 -15 -16 -32 -10 -45 -12 -525 -2 -564 5 -21 18 -35 45 -48
36 -17 206 -73 248 -81 11 -2 21 -4 23 -6 1 -1 5 -2 10 -3 57 -15 104 -30 137
-43 22 -8 47 -16 56 -18 38 -8 106 -46 131 -73 39 -44 44 -102 42 -492 -1
-411 -4 -440 -61 -554 -32 -63 -124 -166 -149 -166 -6 0 -17 -6 -23 -14 -12
-14 -128 -65 -166 -72 -11 -2 -65 -15 -119 -30 -55 -14 -109 -28 -120 -31 -12
-3 -62 -7 -112 -9 -82 -3 -97 -1 -143 22 -60 30 -94 71 -123 146 -23 60 -28
102 -32 241 -1 70 2 101 11 109 7 6 13 7 13 4 0 -4 6 -4 13 1 6 4 17 8 22 10
91 20 256 62 263 67 19 12 29 -21 27 -94 -3 -157 43 -190 204 -145 78 22 123
64 139 126 16 66 11 561 -6 582 -13 15 -92 56 -121 62 -13 3 -104 30 -196 59
-5 2 -14 5 -20 6 -5 1 -21 7 -35 12 -14 6 -49 16 -79 24 -101 27 -174 69 -200
114 -32 58 -34 84 -34 455 0 364 1 391 33 485 59 176 179 275 407 335 56 15
110 28 120 30 10 2 19 4 21 4 1 1 4 1 7 2 2 0 19 5 37 10 18 6 56 13 83 16 28
3 51 6 52 7 3 3 89 -10 113 -16z m4737 -1702 c32 -56 61 -102 65 -104 4 -2 8
-8 8 -12 0 -5 48 -93 108 -195 152 -264 153 -265 139 -270 -7 -2 -60 -3 -120
-2 -59 1 -108 0 -108 -3 -1 -3 -2 -185 -3 -405 l-1 -400 -2423 0 c-1333 0
-2426 3 -2428 7 -4 7 -7 72 -5 124 1 32 12 37 131 61 8 1 76 19 150 38 74 20
144 37 155 39 32 6 75 17 150 39 70 21 74 21 2005 21 l1935 1 0 238 1 237 -26
1 c-14 1 -69 1 -122 1 -54 0 -96 3 -94 6 2 4 57 102 123 217 67 116 129 226
139 245 11 19 22 37 27 38 4 2 7 7 7 12 0 5 19 41 43 82 24 40 46 81 50 92 11
28 30 7 94 -108z"/>
</g>
</svg>
