<?xml version="1.0" encoding="utf-8"?>
<!-- Generator: Adobe Illustrator 19.0.0, SVG Export Plug-In . SVG Version: 6.00 Build 0)  -->
<svg version="1.1" id="Layer_1" xmlns="http://www.w3.org/2000/svg" xmlns:xlink="http://www.w3.org/1999/xlink" x="0px" y="0px"
	 width="225.885px" height="229.683px" viewBox="0 0 225.885 229.683" enable-background="new 0 0 225.885 229.683"
	 xml:space="preserve">
<path id="XMLID_30_" fill="#1C9DD8" d="M213.757,124.711c-0.578-0.442-0.918-1.123-0.918-1.855v-16.029
	c0-0.732,0.34-1.429,0.918-1.872l11.196-8.508c0.731-0.562,1.07-1.497,0.867-2.382l-2.175-9.563
	c-0.204-0.885-0.918-1.582-1.818-1.77l-13.762-2.808c-0.731-0.136-1.342-0.613-1.648-1.276l-6.949-14.447
	c-0.323-0.647-0.306-1.429,0.034-2.076l6.388-12.524c0.425-0.834,0.323-1.821-0.255-2.536l-6.099-7.657
	c-0.561-0.732-1.512-1.038-2.396-0.817l-13.626,3.454c-0.714,0.187-1.461,0.017-2.039-0.442l-12.505-9.989
	c-0.578-0.459-0.9-1.157-0.883-1.889l0.34-14.072c0.017-0.919-0.493-1.77-1.325-2.161l-8.818-4.254
	c-0.832-0.391-1.818-0.272-2.514,0.323l-10.772,9.036c-0.561,0.459-1.308,0.647-2.039,0.477l-15.597-3.556
	c-0.714-0.17-1.308-0.664-1.614-1.327l-5.777-12.813C119.58,0.527,118.748,0,117.83,0h-9.786c-0.917,0-1.75,0.527-2.124,1.378
	l-5.794,12.813c-0.306,0.664-0.901,1.157-1.614,1.327l-15.594,3.557c-0.714,0.17-1.461-0.017-2.022-0.477L70.107,9.562
	c-0.697-0.596-1.682-0.715-2.515-0.323l-8.818,4.254c-0.815,0.391-1.342,1.242-1.325,2.161l0.34,14.072
	c0.017,0.732-0.306,1.429-0.884,1.889L44.4,41.604c-0.578,0.459-1.325,0.63-2.039,0.442l-13.609-3.454
	c-0.901-0.221-1.835,0.085-2.413,0.817l-6.099,7.657c-0.578,0.715-0.68,1.702-0.255,2.536l6.405,12.524
	c0.323,0.647,0.34,1.429,0.017,2.076l-6.949,14.447c-0.306,0.664-0.917,1.14-1.631,1.276L4.051,82.732
	c-0.901,0.187-1.614,0.885-1.818,1.77l-2.175,9.563c-0.204,0.885,0.136,1.821,0.867,2.382l11.196,8.508
	c0.578,0.442,0.917,1.14,0.917,1.872v16.029c0,0.732-0.34,1.412-0.917,1.855l-11.196,8.508c-0.731,0.562-1.07,1.497-0.867,2.399
	l2.175,9.546c0.204,0.902,0.917,1.6,1.818,1.787l13.779,2.791c0.714,0.153,1.325,0.63,1.631,1.293l6.949,14.43
	c0.323,0.664,0.306,1.429-0.017,2.093l-6.405,12.524c-0.425,0.817-0.323,1.804,0.255,2.535l6.099,7.657
	c0.578,0.715,1.512,1.038,2.413,0.8l13.609-3.454c0.714-0.17,1.461-0.017,2.039,0.442l12.505,9.989
	c0.578,0.459,0.9,1.157,0.884,1.889l-0.34,14.072c-0.017,0.919,0.51,1.77,1.325,2.178l8.818,4.237
	c0.832,0.408,1.818,0.289,2.515-0.306l10.789-9.036c0.561-0.476,1.308-0.647,2.022-0.493l15.597,3.573
	c0.714,0.153,1.308,0.647,1.614,1.31l5.794,12.83c0.374,0.834,1.206,1.378,2.124,1.378h9.786c0.917,0,1.75-0.545,2.141-1.378
	l5.777-12.83c0.306-0.664,0.9-1.157,1.614-1.31l15.597-3.573c0.731-0.153,1.478,0.017,2.039,0.493l10.772,9.036
	c0.697,0.596,1.682,0.715,2.514,0.306l8.818-4.237c0.832-0.408,1.342-1.259,1.325-2.178l-0.34-14.072
	c-0.017-0.732,0.306-1.429,0.883-1.889l12.505-9.989c0.578-0.459,1.325-0.613,2.039-0.442l13.626,3.454
	c0.883,0.238,1.835-0.085,2.396-0.8l6.099-7.657c0.578-0.732,0.68-1.719,0.255-2.535l-6.388-12.524
	c-0.34-0.664-0.357-1.429-0.034-2.093l6.949-14.43c0.306-0.664,0.917-1.14,1.648-1.293l13.762-2.791
	c0.9-0.187,1.614-0.885,1.818-1.787l2.175-9.546c0.204-0.902-0.136-1.838-0.867-2.399L213.757,124.711z M50.246,71.212V50.997
	h121.257v3.965l-17.313,4.322H58.503v11.928h6.167l-10.296,17.85l-10.296-17.85H50.246z M72.656,125.001v29.506l-8.682,2.161V91.666
	l8.682-2.161v27.617l10.67-2.672v-27.6l8.682-2.178v65.002l-8.682,2.161v-29.506L72.656,125.001z M43.722,161.875
	c-6.932,1.736-10.398-1.378-10.398-9.342v-3.267l8.682-2.161v3.522c0,2.535,1.291,3.488,3.891,2.842l1.529-0.391
	c2.294-0.562,3.432-2.127,3.432-4.663v-11.044c0-1.208-0.238-1.957-0.714-2.263c-0.493-0.289-1.274-0.647-2.362-1.038l-8.223-2.569
	c-1.801-0.51-3.109-0.987-3.925-1.463c-0.815-0.459-1.41-1.174-1.767-2.127c-0.357-0.97-0.544-2.297-0.544-3.982v-13.324
	c0-7.419,3.466-11.996,10.398-13.715l5.42-1.361c6.932-1.736,10.398,1.123,10.398,8.542v6.33l-8.682,2.178v-5.717
	c0-2.587-1.257-3.573-3.789-2.944l-1.359,0.34c-2.464,0.63-3.704,2.229-3.704,4.816v10.771c0,1.208,0.238,1.974,0.714,2.28
	c0.493,0.289,1.274,0.647,2.362,1.038l8.223,2.382c1.801,0.579,3.092,1.055,3.84,1.429c0.748,0.391,1.342,0.936,1.767,1.651
	s0.629,2.212,0.629,4.509v13.851c0,7.3-3.5,11.826-10.483,13.562L43.722,161.875z M175.632,152.465v20.198H54.375v-4.016
	l17.041-4.254h95.959v-11.928h-6.167l10.296-17.867l10.296,17.867H175.632z M189.971,125.613l-8.682,2.178l0.901-42.779
	l-6.507,32.399l-6.694,1.668l-6.507-29.149l0.917,42.319l-8.682,2.178v-29.676l-11.128,2.791v16.506l-8.087,2.025v-16.506
	l-10.721,2.569v29.506l-8.682,2.161v-29.506l-10.653,2.655v29.523l-8.682,2.161V83.634l8.682-2.161v27.617l10.653-2.672V78.801
	l8.682-2.161v27.753l10.721-2.569v-16.88l8.087-2.025v16.88l11.128-2.791V69.426l9.582-2.399l8.036,36.193l8.053-40.209l9.582-2.399
	v65.001H189.971z"/>
</svg>
